<svg xmlns="http://www.w3.org/2000/svg" version="1.0" width="512.000000pt" height="512.000000pt" viewBox="0 0 512.000000 512.000000" preserveAspectRatio="xMidYMid meet">

<g transform="translate(0.000000,512.000000) scale(0.100000,-0.100000)" fill="#000000" stroke="none">
<path d="M1025 5106 c-516 -87 -894 -447 -1002 -956 -24 -117 -24 -343 0 -460 40 -185 117 -356 225 -496 33 -44 137 -155 231 -249 l171 -170 212 212 212 212 -185 188 c-163 164 -191 197 -223 263 -117 240 -74 504 113 691 187 187 450 230 691 113 72 -35 105 -66 930 -890 l855 -854 213 213 212 212 -853 851 c-468 468 -883 874 -920 902 -129 96 -302 172 -472 207 -107 23 -309 28 -410 11z"/>
<path d="M3745 5106 c-157 -26 -270 -65 -401 -135 -115 -62 -214 -144 -399 -330 l-170 -171 212 -212 212 -212 188 185 c164 163 197 191 263 223 240 117 504 74 691 -113 187 -187 230 -450 113 -691 -35 -72 -66 -104 -860 -900 l-824 -825 213 -213 212 -212 821 823 c452 452 844 853 872 890 150 202 227 442 227 707 0 102 -6 170 -18 230 -103 485 -461 845 -942 945 -107 23 -309 28 -410 11z"/>
<path d="M1104 2797 c-452 -452 -844 -853 -872 -890 -96 -130 -171 -301 -209 -477 -24 -117 -24 -343 0 -460 104 -487 460 -843 947 -947 117 -24 343 -24 460 0 185 40 356 117 496 225 44 33 155 137 249 231 l170 171 -212 212 -212 212 -188 -185 c-164 -163 -197 -191 -263 -223 -240 -117 -504 -74 -691 113 -187 187 -230 450 -113 691 35 72 66 104 860 900 l824 825 -213 213 -212 212 -821 -823z"/>
<path d="M1712 2137 l-212 -212 823 -821 c452 -452 853 -844 890 -872 130 -96 301 -171 477 -209 117 -24 343 -24 460 0 487 104 843 460 947 947 24 117 24 343 0 460 -40 185 -117 356 -225 496 -33 44 -137 155 -231 249 l-171 170 -212 -212 -212 -212 185 -188 c163 -164 191 -197 223 -263 117 -240 74 -504 -113 -691 -187 -187 -450 -230 -691 -113 -72 35 -104 66 -900 860 l-825 824 -213 -213z"/>
</g>
</svg>